<mxfile host="app.diagrams.net" modified="2023-01-03T14:36:25.954Z" agent="5.0 (Windows)" etag="s2iU3Sgr7-rNBvwh7NEe" version="20.7.4" type="github">
  <diagram id="C5RBs43oDa-KdzZeNtuy" name="Page-1">
    <mxGraphModel dx="1221" dy="733" grid="1" gridSize="10" guides="1" tooltips="1" connect="1" arrows="1" fold="1" page="1" pageScale="1" pageWidth="827" pageHeight="1169" background="#ffffff" math="0" shadow="0">
      <root>
        <mxCell id="WIyWlLk6GJQsqaUBKTNV-0" />
        <mxCell id="WIyWlLk6GJQsqaUBKTNV-1" parent="WIyWlLk6GJQsqaUBKTNV-0" />
        <mxCell id="WIyWlLk6GJQsqaUBKTNV-3" value="引言" style="rounded=1;whiteSpace=wrap;html=1;fontSize=12;glass=0;strokeWidth=1;shadow=0;" parent="WIyWlLk6GJQsqaUBKTNV-1" vertex="1">
          <mxGeometry x="340" y="40" width="120" height="40" as="geometry" />
        </mxCell>
        <mxCell id="WIyWlLk6GJQsqaUBKTNV-7" value="相关理论与模型" style="rounded=1;whiteSpace=wrap;html=1;fontSize=12;glass=0;strokeWidth=1;shadow=0;" parent="WIyWlLk6GJQsqaUBKTNV-1" vertex="1">
          <mxGeometry x="340" y="200" width="120" height="40" as="geometry" />
        </mxCell>
        <mxCell id="ZmgnMH66hJVNVqd5aJOY-0" value="研究背景及意义" style="rounded=0;whiteSpace=wrap;html=1;" vertex="1" parent="WIyWlLk6GJQsqaUBKTNV-1">
          <mxGeometry x="110" y="140" width="120" height="40" as="geometry" />
        </mxCell>
        <mxCell id="ZmgnMH66hJVNVqd5aJOY-2" value="" style="endArrow=none;html=1;rounded=0;" edge="1" parent="WIyWlLk6GJQsqaUBKTNV-1">
          <mxGeometry width="50" height="50" relative="1" as="geometry">
            <mxPoint x="169.83" y="110" as="sourcePoint" />
            <mxPoint x="629.83" y="110" as="targetPoint" />
          </mxGeometry>
        </mxCell>
        <mxCell id="ZmgnMH66hJVNVqd5aJOY-3" value="文献综述" style="rounded=0;whiteSpace=wrap;html=1;" vertex="1" parent="WIyWlLk6GJQsqaUBKTNV-1">
          <mxGeometry x="260" y="140" width="120" height="40" as="geometry" />
        </mxCell>
        <mxCell id="ZmgnMH66hJVNVqd5aJOY-4" value="研究内容和方法" style="rounded=0;whiteSpace=wrap;html=1;" vertex="1" parent="WIyWlLk6GJQsqaUBKTNV-1">
          <mxGeometry x="420" y="140" width="120" height="40" as="geometry" />
        </mxCell>
        <mxCell id="ZmgnMH66hJVNVqd5aJOY-5" value="创新点" style="rounded=0;whiteSpace=wrap;html=1;" vertex="1" parent="WIyWlLk6GJQsqaUBKTNV-1">
          <mxGeometry x="570" y="140" width="120" height="40" as="geometry" />
        </mxCell>
        <mxCell id="ZmgnMH66hJVNVqd5aJOY-6" value="" style="endArrow=none;html=1;rounded=0;" edge="1" parent="WIyWlLk6GJQsqaUBKTNV-1">
          <mxGeometry x="1" y="292" width="50" height="50" relative="1" as="geometry">
            <mxPoint x="169.83" y="140" as="sourcePoint" />
            <mxPoint x="169.83" y="110" as="targetPoint" />
            <mxPoint x="22" y="-110" as="offset" />
          </mxGeometry>
        </mxCell>
        <mxCell id="ZmgnMH66hJVNVqd5aJOY-7" value="" style="endArrow=none;html=1;rounded=0;" edge="1" parent="WIyWlLk6GJQsqaUBKTNV-1">
          <mxGeometry x="1" y="292" width="50" height="50" relative="1" as="geometry">
            <mxPoint x="629.83" y="140" as="sourcePoint" />
            <mxPoint x="629.4899999999999" y="110" as="targetPoint" />
            <mxPoint x="22" y="-110" as="offset" />
            <Array as="points">
              <mxPoint x="629.83" y="130" />
            </Array>
          </mxGeometry>
        </mxCell>
        <mxCell id="ZmgnMH66hJVNVqd5aJOY-8" value="" style="endArrow=none;html=1;rounded=0;" edge="1" parent="WIyWlLk6GJQsqaUBKTNV-1">
          <mxGeometry x="1" y="292" width="50" height="50" relative="1" as="geometry">
            <mxPoint x="479.83" y="140" as="sourcePoint" />
            <mxPoint x="479.82999999999976" y="110" as="targetPoint" />
            <mxPoint x="22" y="-110" as="offset" />
          </mxGeometry>
        </mxCell>
        <mxCell id="ZmgnMH66hJVNVqd5aJOY-9" value="" style="endArrow=none;html=1;rounded=0;" edge="1" parent="WIyWlLk6GJQsqaUBKTNV-1">
          <mxGeometry x="1" y="292" width="50" height="50" relative="1" as="geometry">
            <mxPoint x="319.83" y="140" as="sourcePoint" />
            <mxPoint x="319.4899999999997" y="110" as="targetPoint" />
            <mxPoint x="22" y="-110" as="offset" />
          </mxGeometry>
        </mxCell>
        <mxCell id="ZmgnMH66hJVNVqd5aJOY-11" value="" style="endArrow=classic;html=1;rounded=0;" edge="1" parent="WIyWlLk6GJQsqaUBKTNV-1">
          <mxGeometry x="-1" y="10" width="50" height="50" relative="1" as="geometry">
            <mxPoint x="400" y="140" as="sourcePoint" />
            <mxPoint x="400.31" y="190" as="targetPoint" />
            <mxPoint x="-10" y="-10" as="offset" />
          </mxGeometry>
        </mxCell>
        <mxCell id="ZmgnMH66hJVNVqd5aJOY-13" value="" style="endArrow=none;html=1;rounded=0;" edge="1" parent="WIyWlLk6GJQsqaUBKTNV-1">
          <mxGeometry width="50" height="50" relative="1" as="geometry">
            <mxPoint x="319.83" y="270" as="sourcePoint" />
            <mxPoint x="479.83" y="270" as="targetPoint" />
          </mxGeometry>
        </mxCell>
        <mxCell id="ZmgnMH66hJVNVqd5aJOY-14" value="集成学习模型" style="rounded=0;whiteSpace=wrap;html=1;" vertex="1" parent="WIyWlLk6GJQsqaUBKTNV-1">
          <mxGeometry x="260" y="300" width="120" height="40" as="geometry" />
        </mxCell>
        <mxCell id="ZmgnMH66hJVNVqd5aJOY-15" value="资产配置模型" style="rounded=0;whiteSpace=wrap;html=1;" vertex="1" parent="WIyWlLk6GJQsqaUBKTNV-1">
          <mxGeometry x="420" y="300" width="120" height="40" as="geometry" />
        </mxCell>
        <mxCell id="ZmgnMH66hJVNVqd5aJOY-19" value="" style="endArrow=none;html=1;rounded=0;" edge="1" parent="WIyWlLk6GJQsqaUBKTNV-1">
          <mxGeometry x="1" y="292" width="50" height="50" relative="1" as="geometry">
            <mxPoint x="479.83" y="300" as="sourcePoint" />
            <mxPoint x="479.82999999999976" y="270" as="targetPoint" />
            <mxPoint x="22" y="-110" as="offset" />
          </mxGeometry>
        </mxCell>
        <mxCell id="ZmgnMH66hJVNVqd5aJOY-20" value="" style="endArrow=none;html=1;rounded=0;" edge="1" parent="WIyWlLk6GJQsqaUBKTNV-1">
          <mxGeometry x="1" y="292" width="50" height="50" relative="1" as="geometry">
            <mxPoint x="319.83" y="300" as="sourcePoint" />
            <mxPoint x="319.48999999999984" y="270" as="targetPoint" />
            <mxPoint x="22" y="-110" as="offset" />
          </mxGeometry>
        </mxCell>
        <mxCell id="ZmgnMH66hJVNVqd5aJOY-23" value="" style="endArrow=none;html=1;rounded=0;" edge="1" parent="WIyWlLk6GJQsqaUBKTNV-1">
          <mxGeometry x="1" y="292" width="50" height="50" relative="1" as="geometry">
            <mxPoint x="399" y="110" as="sourcePoint" />
            <mxPoint x="399.30999999999983" y="80" as="targetPoint" />
            <mxPoint x="22" y="-110" as="offset" />
          </mxGeometry>
        </mxCell>
        <mxCell id="ZmgnMH66hJVNVqd5aJOY-24" value="" style="endArrow=none;html=1;rounded=0;" edge="1" parent="WIyWlLk6GJQsqaUBKTNV-1">
          <mxGeometry x="1" y="292" width="50" height="50" relative="1" as="geometry">
            <mxPoint x="400" y="270" as="sourcePoint" />
            <mxPoint x="399.65999999999985" y="240" as="targetPoint" />
            <mxPoint x="22" y="-110" as="offset" />
          </mxGeometry>
        </mxCell>
        <mxCell id="ZmgnMH66hJVNVqd5aJOY-25" value="" style="endArrow=classic;html=1;rounded=0;" edge="1" parent="WIyWlLk6GJQsqaUBKTNV-1">
          <mxGeometry x="-1" y="10" width="50" height="50" relative="1" as="geometry">
            <mxPoint x="399.66" y="310" as="sourcePoint" />
            <mxPoint x="399.96999999999997" y="360" as="targetPoint" />
            <mxPoint x="-10" y="-10" as="offset" />
          </mxGeometry>
        </mxCell>
        <mxCell id="ZmgnMH66hJVNVqd5aJOY-26" value="数据选取与预处理" style="rounded=1;whiteSpace=wrap;html=1;fontSize=12;glass=0;strokeWidth=1;shadow=0;" vertex="1" parent="WIyWlLk6GJQsqaUBKTNV-1">
          <mxGeometry x="340" y="370" width="120" height="40" as="geometry" />
        </mxCell>
        <mxCell id="ZmgnMH66hJVNVqd5aJOY-40" value="" style="endArrow=none;html=1;rounded=0;" edge="1" parent="WIyWlLk6GJQsqaUBKTNV-1">
          <mxGeometry width="50" height="50" relative="1" as="geometry">
            <mxPoint x="319.8299999999999" y="440" as="sourcePoint" />
            <mxPoint x="479.8299999999999" y="440" as="targetPoint" />
          </mxGeometry>
        </mxCell>
        <mxCell id="ZmgnMH66hJVNVqd5aJOY-41" value="基金池" style="rounded=0;whiteSpace=wrap;html=1;" vertex="1" parent="WIyWlLk6GJQsqaUBKTNV-1">
          <mxGeometry x="260" y="470" width="120" height="40" as="geometry" />
        </mxCell>
        <mxCell id="ZmgnMH66hJVNVqd5aJOY-42" value="因子池" style="rounded=0;whiteSpace=wrap;html=1;" vertex="1" parent="WIyWlLk6GJQsqaUBKTNV-1">
          <mxGeometry x="420" y="470" width="120" height="40" as="geometry" />
        </mxCell>
        <mxCell id="ZmgnMH66hJVNVqd5aJOY-43" value="" style="endArrow=none;html=1;rounded=0;" edge="1" parent="WIyWlLk6GJQsqaUBKTNV-1">
          <mxGeometry x="1" y="292" width="50" height="50" relative="1" as="geometry">
            <mxPoint x="479.8299999999999" y="470.0000000000001" as="sourcePoint" />
            <mxPoint x="479.8299999999997" y="440" as="targetPoint" />
            <mxPoint x="22" y="-110" as="offset" />
          </mxGeometry>
        </mxCell>
        <mxCell id="ZmgnMH66hJVNVqd5aJOY-44" value="" style="endArrow=none;html=1;rounded=0;" edge="1" parent="WIyWlLk6GJQsqaUBKTNV-1">
          <mxGeometry x="1" y="292" width="50" height="50" relative="1" as="geometry">
            <mxPoint x="319.8299999999999" y="470.0000000000001" as="sourcePoint" />
            <mxPoint x="319.4899999999998" y="440" as="targetPoint" />
            <mxPoint x="22" y="-110" as="offset" />
          </mxGeometry>
        </mxCell>
        <mxCell id="ZmgnMH66hJVNVqd5aJOY-45" value="" style="endArrow=none;html=1;rounded=0;" edge="1" parent="WIyWlLk6GJQsqaUBKTNV-1">
          <mxGeometry x="1" y="292" width="50" height="50" relative="1" as="geometry">
            <mxPoint x="400" y="440" as="sourcePoint" />
            <mxPoint x="399.65999999999985" y="410" as="targetPoint" />
            <mxPoint x="22" y="-110" as="offset" />
          </mxGeometry>
        </mxCell>
        <mxCell id="ZmgnMH66hJVNVqd5aJOY-46" value="" style="endArrow=none;html=1;rounded=0;" edge="1" parent="WIyWlLk6GJQsqaUBKTNV-1">
          <mxGeometry width="50" height="50" relative="1" as="geometry">
            <mxPoint x="479.82999999999976" y="540.0000000000001" as="sourcePoint" />
            <mxPoint x="319.82999999999976" y="540.0000000000001" as="targetPoint" />
          </mxGeometry>
        </mxCell>
        <mxCell id="ZmgnMH66hJVNVqd5aJOY-47" value="" style="endArrow=none;html=1;rounded=0;" edge="1" parent="WIyWlLk6GJQsqaUBKTNV-1">
          <mxGeometry x="1" y="292" width="50" height="50" relative="1" as="geometry">
            <mxPoint x="319.82999999999976" y="510.0000000000001" as="sourcePoint" />
            <mxPoint x="319.82999999999976" y="540.0000000000001" as="targetPoint" />
            <mxPoint x="22" y="-110" as="offset" />
          </mxGeometry>
        </mxCell>
        <mxCell id="ZmgnMH66hJVNVqd5aJOY-48" value="" style="endArrow=none;html=1;rounded=0;" edge="1" parent="WIyWlLk6GJQsqaUBKTNV-1">
          <mxGeometry x="1" y="292" width="50" height="50" relative="1" as="geometry">
            <mxPoint x="479.82999999999976" y="510.0000000000001" as="sourcePoint" />
            <mxPoint x="479.82999999999976" y="540.0000000000001" as="targetPoint" />
            <mxPoint x="22" y="-110" as="offset" />
          </mxGeometry>
        </mxCell>
        <mxCell id="ZmgnMH66hJVNVqd5aJOY-51" value="" style="endArrow=classic;html=1;rounded=0;" edge="1" parent="WIyWlLk6GJQsqaUBKTNV-1">
          <mxGeometry width="50" height="50" relative="1" as="geometry">
            <mxPoint x="399.65999999999997" y="540" as="sourcePoint" />
            <mxPoint x="399.65999999999997" y="570" as="targetPoint" />
          </mxGeometry>
        </mxCell>
        <mxCell id="ZmgnMH66hJVNVqd5aJOY-53" value="预处理" style="rounded=0;whiteSpace=wrap;html=1;" vertex="1" parent="WIyWlLk6GJQsqaUBKTNV-1">
          <mxGeometry x="340" y="570" width="120" height="40" as="geometry" />
        </mxCell>
        <mxCell id="ZmgnMH66hJVNVqd5aJOY-63" value="" style="endArrow=none;html=1;rounded=0;" edge="1" parent="WIyWlLk6GJQsqaUBKTNV-1">
          <mxGeometry width="50" height="50" relative="1" as="geometry">
            <mxPoint x="240" y="640" as="sourcePoint" />
            <mxPoint x="560" y="640" as="targetPoint" />
          </mxGeometry>
        </mxCell>
        <mxCell id="ZmgnMH66hJVNVqd5aJOY-64" value="XGBoost" style="rounded=0;whiteSpace=wrap;html=1;" vertex="1" parent="WIyWlLk6GJQsqaUBKTNV-1">
          <mxGeometry x="180" y="670" width="120" height="40" as="geometry" />
        </mxCell>
        <mxCell id="ZmgnMH66hJVNVqd5aJOY-65" value="LightGBM" style="rounded=0;whiteSpace=wrap;html=1;" vertex="1" parent="WIyWlLk6GJQsqaUBKTNV-1">
          <mxGeometry x="340" y="670" width="120" height="40" as="geometry" />
        </mxCell>
        <mxCell id="ZmgnMH66hJVNVqd5aJOY-66" value="" style="endArrow=none;html=1;rounded=0;" edge="1" parent="WIyWlLk6GJQsqaUBKTNV-1">
          <mxGeometry x="1" y="292" width="50" height="50" relative="1" as="geometry">
            <mxPoint x="399.6599999999999" y="670" as="sourcePoint" />
            <mxPoint x="399.6599999999997" y="640.0000000000001" as="targetPoint" />
            <mxPoint x="22" y="-110" as="offset" />
          </mxGeometry>
        </mxCell>
        <mxCell id="ZmgnMH66hJVNVqd5aJOY-67" value="" style="endArrow=none;html=1;rounded=0;" edge="1" parent="WIyWlLk6GJQsqaUBKTNV-1">
          <mxGeometry x="1" y="292" width="50" height="50" relative="1" as="geometry">
            <mxPoint x="239.99999999999994" y="670" as="sourcePoint" />
            <mxPoint x="239.6599999999998" y="640.0000000000001" as="targetPoint" />
            <mxPoint x="22" y="-110" as="offset" />
          </mxGeometry>
        </mxCell>
        <mxCell id="ZmgnMH66hJVNVqd5aJOY-69" value="CatBoost" style="rounded=0;whiteSpace=wrap;html=1;" vertex="1" parent="WIyWlLk6GJQsqaUBKTNV-1">
          <mxGeometry x="500" y="670" width="120" height="40" as="geometry" />
        </mxCell>
        <mxCell id="ZmgnMH66hJVNVqd5aJOY-70" value="" style="endArrow=none;html=1;rounded=0;" edge="1" parent="WIyWlLk6GJQsqaUBKTNV-1">
          <mxGeometry x="1" y="292" width="50" height="50" relative="1" as="geometry">
            <mxPoint x="560" y="670" as="sourcePoint" />
            <mxPoint x="559.6599999999999" y="640" as="targetPoint" />
            <mxPoint x="22" y="-110" as="offset" />
          </mxGeometry>
        </mxCell>
        <mxCell id="ZmgnMH66hJVNVqd5aJOY-71" value="" style="endArrow=classic;html=1;rounded=0;" edge="1" parent="WIyWlLk6GJQsqaUBKTNV-1">
          <mxGeometry width="50" height="50" relative="1" as="geometry">
            <mxPoint x="399.65999999999985" y="610" as="sourcePoint" />
            <mxPoint x="399.65999999999985" y="640" as="targetPoint" />
          </mxGeometry>
        </mxCell>
        <mxCell id="ZmgnMH66hJVNVqd5aJOY-78" value="" style="group" vertex="1" connectable="0" parent="WIyWlLk6GJQsqaUBKTNV-1">
          <mxGeometry x="239.99999999999986" y="710" width="320" height="60" as="geometry" />
        </mxCell>
        <mxCell id="ZmgnMH66hJVNVqd5aJOY-72" value="" style="endArrow=none;html=1;rounded=0;" edge="1" parent="ZmgnMH66hJVNVqd5aJOY-78">
          <mxGeometry width="50" height="50" relative="1" as="geometry">
            <mxPoint x="320" y="30" as="sourcePoint" />
            <mxPoint y="30" as="targetPoint" />
          </mxGeometry>
        </mxCell>
        <mxCell id="ZmgnMH66hJVNVqd5aJOY-73" value="" style="endArrow=none;html=1;rounded=0;" edge="1" parent="ZmgnMH66hJVNVqd5aJOY-78">
          <mxGeometry x="1" y="292" width="50" height="50" relative="1" as="geometry">
            <mxPoint x="160.00000000000003" as="sourcePoint" />
            <mxPoint x="160.00000000000003" y="30" as="targetPoint" />
            <mxPoint x="22" y="-110" as="offset" />
          </mxGeometry>
        </mxCell>
        <mxCell id="ZmgnMH66hJVNVqd5aJOY-74" value="" style="endArrow=none;html=1;rounded=0;" edge="1" parent="ZmgnMH66hJVNVqd5aJOY-78">
          <mxGeometry x="1" y="292" width="50" height="50" relative="1" as="geometry">
            <mxPoint x="320" as="sourcePoint" />
            <mxPoint x="320" y="30" as="targetPoint" />
            <mxPoint x="22" y="-110" as="offset" />
          </mxGeometry>
        </mxCell>
        <mxCell id="ZmgnMH66hJVNVqd5aJOY-75" value="" style="endArrow=none;html=1;rounded=0;" edge="1" parent="ZmgnMH66hJVNVqd5aJOY-78">
          <mxGeometry x="1" y="292" width="50" height="50" relative="1" as="geometry">
            <mxPoint as="sourcePoint" />
            <mxPoint y="30" as="targetPoint" />
            <mxPoint x="22" y="-110" as="offset" />
          </mxGeometry>
        </mxCell>
        <mxCell id="ZmgnMH66hJVNVqd5aJOY-76" value="" style="endArrow=classic;html=1;rounded=0;" edge="1" parent="ZmgnMH66hJVNVqd5aJOY-78">
          <mxGeometry width="50" height="50" relative="1" as="geometry">
            <mxPoint x="159.31000000000003" y="30" as="sourcePoint" />
            <mxPoint x="159.31000000000014" y="60" as="targetPoint" />
          </mxGeometry>
        </mxCell>
        <mxCell id="ZmgnMH66hJVNVqd5aJOY-79" value="Stacking融合" style="rounded=0;whiteSpace=wrap;html=1;" vertex="1" parent="WIyWlLk6GJQsqaUBKTNV-1">
          <mxGeometry x="340" y="770" width="120" height="40" as="geometry" />
        </mxCell>
        <mxCell id="ZmgnMH66hJVNVqd5aJOY-82" value="" style="endArrow=none;html=1;rounded=0;" edge="1" parent="WIyWlLk6GJQsqaUBKTNV-1">
          <mxGeometry width="50" height="50" relative="1" as="geometry">
            <mxPoint x="239.9999999999999" y="840" as="sourcePoint" />
            <mxPoint x="560" y="840" as="targetPoint" />
          </mxGeometry>
        </mxCell>
        <mxCell id="ZmgnMH66hJVNVqd5aJOY-83" value="等权重模型" style="rounded=0;whiteSpace=wrap;html=1;" vertex="1" parent="WIyWlLk6GJQsqaUBKTNV-1">
          <mxGeometry x="180" y="870" width="120" height="40" as="geometry" />
        </mxCell>
        <mxCell id="ZmgnMH66hJVNVqd5aJOY-84" value="最小方差模型" style="rounded=0;whiteSpace=wrap;html=1;" vertex="1" parent="WIyWlLk6GJQsqaUBKTNV-1">
          <mxGeometry x="340" y="870" width="120" height="40" as="geometry" />
        </mxCell>
        <mxCell id="ZmgnMH66hJVNVqd5aJOY-85" value="" style="endArrow=none;html=1;rounded=0;" edge="1" parent="WIyWlLk6GJQsqaUBKTNV-1">
          <mxGeometry x="1" y="292" width="50" height="50" relative="1" as="geometry">
            <mxPoint x="399.65999999999985" y="870" as="sourcePoint" />
            <mxPoint x="399.6599999999996" y="840" as="targetPoint" />
            <mxPoint x="22" y="-110" as="offset" />
          </mxGeometry>
        </mxCell>
        <mxCell id="ZmgnMH66hJVNVqd5aJOY-86" value="" style="endArrow=none;html=1;rounded=0;" edge="1" parent="WIyWlLk6GJQsqaUBKTNV-1">
          <mxGeometry x="1" y="292" width="50" height="50" relative="1" as="geometry">
            <mxPoint x="239.9999999999999" y="870" as="sourcePoint" />
            <mxPoint x="239.65999999999985" y="840" as="targetPoint" />
            <mxPoint x="22" y="-110" as="offset" />
          </mxGeometry>
        </mxCell>
        <mxCell id="ZmgnMH66hJVNVqd5aJOY-87" value="风险平价模型" style="rounded=0;whiteSpace=wrap;html=1;" vertex="1" parent="WIyWlLk6GJQsqaUBKTNV-1">
          <mxGeometry x="500" y="870" width="120" height="40" as="geometry" />
        </mxCell>
        <mxCell id="ZmgnMH66hJVNVqd5aJOY-88" value="" style="endArrow=none;html=1;rounded=0;" edge="1" parent="WIyWlLk6GJQsqaUBKTNV-1">
          <mxGeometry x="1" y="292" width="50" height="50" relative="1" as="geometry">
            <mxPoint x="560" y="870" as="sourcePoint" />
            <mxPoint x="559.6599999999999" y="840" as="targetPoint" />
            <mxPoint x="22" y="-110" as="offset" />
          </mxGeometry>
        </mxCell>
        <mxCell id="ZmgnMH66hJVNVqd5aJOY-89" value="" style="endArrow=classic;html=1;rounded=0;" edge="1" parent="WIyWlLk6GJQsqaUBKTNV-1">
          <mxGeometry width="50" height="50" relative="1" as="geometry">
            <mxPoint x="399.65999999999985" y="810" as="sourcePoint" />
            <mxPoint x="399.65999999999985" y="840" as="targetPoint" />
          </mxGeometry>
        </mxCell>
        <mxCell id="ZmgnMH66hJVNVqd5aJOY-91" value="" style="endArrow=classic;html=1;rounded=0;" edge="1" parent="WIyWlLk6GJQsqaUBKTNV-1">
          <mxGeometry x="-1" y="10" width="50" height="50" relative="1" as="geometry">
            <mxPoint x="399.69" y="920" as="sourcePoint" />
            <mxPoint x="399.66" y="960.0000000000001" as="targetPoint" />
            <mxPoint x="-10" y="-10" as="offset" />
          </mxGeometry>
        </mxCell>
        <mxCell id="ZmgnMH66hJVNVqd5aJOY-92" value="策略有效性分析" style="rounded=1;whiteSpace=wrap;html=1;fontSize=12;glass=0;strokeWidth=1;shadow=0;" vertex="1" parent="WIyWlLk6GJQsqaUBKTNV-1">
          <mxGeometry x="340" y="960" width="120" height="40" as="geometry" />
        </mxCell>
        <mxCell id="ZmgnMH66hJVNVqd5aJOY-93" value="" style="endArrow=classic;html=1;rounded=0;" edge="1" parent="WIyWlLk6GJQsqaUBKTNV-1">
          <mxGeometry x="-1" y="10" width="50" height="50" relative="1" as="geometry">
            <mxPoint x="399.69000000000005" y="1010" as="sourcePoint" />
            <mxPoint x="399.6600000000001" y="1050" as="targetPoint" />
            <mxPoint x="-10" y="-10" as="offset" />
          </mxGeometry>
        </mxCell>
        <mxCell id="ZmgnMH66hJVNVqd5aJOY-94" value="结论与展望" style="rounded=1;whiteSpace=wrap;html=1;fontSize=12;glass=0;strokeWidth=1;shadow=0;" vertex="1" parent="WIyWlLk6GJQsqaUBKTNV-1">
          <mxGeometry x="340" y="1050" width="120" height="40" as="geometry" />
        </mxCell>
      </root>
    </mxGraphModel>
  </diagram>
</mxfile>
